<svg width="91" height="44" viewBox="0 0 91 44" fill="none" xmlns="http://www.w3.org/2000/svg">
<g clip-path="url(#clip0_746_215)">
<path d="M13.3115 44.0002H1.0354V26.0869H13.0016V30.3352H5.30883V32.894H12.563V37.014H5.30883V39.7265H13.3115V44.0002Z" fill="white"/>
<path d="M33.9563 43.9739H30.4285L27.7105 35.4018L25.0809 43.9739H21.5739L15.8566 26.0869H20.5874L22.5598 32.382C22.934 33.7387 23.1519 35.1972 23.3712 36.5276L26.1984 26.0869H29.2008L32.1157 36.5293C32.335 35.1735 32.6202 33.7405 32.9705 32.2556L34.8112 26.0887H39.5457L33.9563 43.9739Z" fill="white"/>
<path d="M52.0359 41.0568H45.1755L44.168 44.0002H39.5652L46.4473 26.0869H50.83L57.6904 44.0002H53.0442L52.0359 41.0568ZM48.6166 31.1026L46.6442 36.8103H50.5673L48.6166 31.1026Z" fill="white"/>
<path d="M74.6404 26.3943L68.4156 34.8609C70.5639 37.6243 73.0401 40.8487 75.1659 43.6894V43.9967H69.7966L65.4102 38.0379V44.0002H61.0686V26.0869H65.4102V31.9702C66.7253 30.0761 68.1498 27.9783 69.4426 26.0869H74.6374L74.6404 26.3943Z" fill="white"/>
<path d="M89.8793 44.0002H77.6031V26.0869H89.5701V30.3352H81.8781V32.894H89.1322V37.014H81.8781V39.7265H89.8778L89.8793 44.0002Z" fill="white"/>
<path d="M31.2218 0.0317862L23.3691 9.24365L26.3142 12.6984L34.1669 3.48655L31.2218 0.0317862Z" fill="white"/>
<path d="M56.7479 3.45415L64.6006 12.666L67.5456 9.21126L59.6929 -0.00061278L56.7479 3.45415Z" fill="white"/>
<path d="M39.5899 8.83013C43.4565 7.00402 47.783 7.05356 51.6185 8.96785C55.454 10.8821 58.4847 14.5045 60.0445 19.039C60.1052 19.2146 60.1576 19.3946 60.213 19.5728H64.8434C64.6477 18.7364 64.412 17.9135 64.1376 17.108C62.6497 12.7778 60.1009 9.06237 56.8133 6.4313C53.5256 3.80024 49.6468 2.37171 45.6672 2.32631C41.6875 2.28092 37.7857 3.6207 34.4551 6.17627C31.1245 8.73185 28.5145 12.3885 26.9552 16.6839C26.6152 17.6253 26.3274 18.5914 26.0936 19.5764H30.7264C31.4789 17.1562 32.6569 14.9488 34.1839 13.0975C35.7109 11.2461 37.5527 9.79221 39.5899 8.83013Z" fill="white"/>
</g>
<defs>
<clipPath id="clip0_746_215">
<rect width="89.1583" height="44" fill="white" transform="translate(0.878174)"/>
</clipPath>
</defs>
</svg>
